<!DOCTYPE svg PUBLIC "-//W3C//DTD SVG 1.1//EN" "http://www.w3.org/Graphics/SVG/1.1/DTD/svg11.dtd">
<!-- Uploaded to: SVG Repo, www.svgrepo.com, Transformed by: SVG Repo Mixer Tools -->
<svg fill="#000000" height="800px" width="800px" version="1.1" id="XMLID_142_" xmlns="http://www.w3.org/2000/svg" xmlns:xlink="http://www.w3.org/1999/xlink" viewBox="-9.6 -9.6 43.20 43.20" xml:space="preserve">
<g id="SVGRepo_bgCarrier" stroke-width="0">
<rect x="-9.6" y="-9.6" width="43.20" height="43.20" rx="10.8" fill="#77767b" strokewidth="0"/>
</g>
<g id="SVGRepo_tracerCarrier" stroke-linecap="round" stroke-linejoin="round"/>
<g id="SVGRepo_iconCarrier"> <g id="virtual-machine"> <g> <path d="M15,24H0V9h5V0h15v5h4v15h-9V24z M2,22h11v-2H9v-5H5v-4H2V22z M15,18h7V7h-2v8h-5V18z M11,18h2v-3h-2V18z M15,13h3V7h-7v2 h4V13z M11,13h2v-2h-2V13z M7,13h2v-2H7V13z M7,9h2V5h9V2H7V9z"/> </g> </g> </g>
</svg>